<mxfile host="app.diagrams.net" agent="Mozilla/5.0 (Windows NT 10.0; Win64; x64) AppleWebKit/537.36 (KHTML, like Gecko) Chrome/140.0.0.0 Safari/537.36 Edg/140.0.0.0" version="28.2.3">
  <diagram name="PÃ¡gina-1" id="z6xscOHgkXDHgnHVEbxs">
    <mxGraphModel dx="1418" dy="786" grid="1" gridSize="10" guides="1" tooltips="1" connect="1" arrows="1" fold="1" page="1" pageScale="1" pageWidth="827" pageHeight="1169" math="0" shadow="0">
      <root>
        <mxCell id="0" />
        <mxCell id="1" parent="0" />
        <mxCell id="p1m8qH2R9MSw8GRkQH0f-6" value="" style="edgeStyle=orthogonalEdgeStyle;rounded=0;orthogonalLoop=1;jettySize=auto;html=1;" edge="1" parent="1" source="p1m8qH2R9MSw8GRkQH0f-1" target="p1m8qH2R9MSw8GRkQH0f-3">
          <mxGeometry relative="1" as="geometry" />
        </mxCell>
        <mxCell id="p1m8qH2R9MSw8GRkQH0f-1" value="inicio" style="ellipse;whiteSpace=wrap;html=1;" vertex="1" parent="1">
          <mxGeometry x="354" y="10" width="120" height="80" as="geometry" />
        </mxCell>
        <mxCell id="p1m8qH2R9MSw8GRkQH0f-2" value="fim" style="ellipse;whiteSpace=wrap;html=1;" vertex="1" parent="1">
          <mxGeometry x="354" y="680" width="120" height="80" as="geometry" />
        </mxCell>
        <mxCell id="p1m8qH2R9MSw8GRkQH0f-7" value="" style="edgeStyle=orthogonalEdgeStyle;rounded=0;orthogonalLoop=1;jettySize=auto;html=1;" edge="1" parent="1" source="p1m8qH2R9MSw8GRkQH0f-3" target="p1m8qH2R9MSw8GRkQH0f-4">
          <mxGeometry relative="1" as="geometry" />
        </mxCell>
        <mxCell id="p1m8qH2R9MSw8GRkQH0f-3" value="ler n1,n2,n3" style="shape=parallelogram;perimeter=parallelogramPerimeter;whiteSpace=wrap;html=1;fixedSize=1;" vertex="1" parent="1">
          <mxGeometry x="354" y="130" width="120" height="60" as="geometry" />
        </mxCell>
        <mxCell id="p1m8qH2R9MSw8GRkQH0f-11" value="" style="edgeStyle=orthogonalEdgeStyle;rounded=0;orthogonalLoop=1;jettySize=auto;html=1;" edge="1" parent="1" source="p1m8qH2R9MSw8GRkQH0f-4" target="p1m8qH2R9MSw8GRkQH0f-9">
          <mxGeometry relative="1" as="geometry" />
        </mxCell>
        <mxCell id="p1m8qH2R9MSw8GRkQH0f-12" value="SIM" style="edgeLabel;html=1;align=center;verticalAlign=middle;resizable=0;points=[];" vertex="1" connectable="0" parent="p1m8qH2R9MSw8GRkQH0f-11">
          <mxGeometry x="-0.0444" y="-1" relative="1" as="geometry">
            <mxPoint as="offset" />
          </mxGeometry>
        </mxCell>
        <mxCell id="p1m8qH2R9MSw8GRkQH0f-13" value="" style="edgeStyle=orthogonalEdgeStyle;rounded=0;orthogonalLoop=1;jettySize=auto;html=1;" edge="1" parent="1" source="p1m8qH2R9MSw8GRkQH0f-4" target="p1m8qH2R9MSw8GRkQH0f-5">
          <mxGeometry relative="1" as="geometry" />
        </mxCell>
        <mxCell id="p1m8qH2R9MSw8GRkQH0f-14" value="NAO" style="edgeLabel;html=1;align=center;verticalAlign=middle;resizable=0;points=[];" vertex="1" connectable="0" parent="p1m8qH2R9MSw8GRkQH0f-13">
          <mxGeometry x="-0.2857" y="-4" relative="1" as="geometry">
            <mxPoint as="offset" />
          </mxGeometry>
        </mxCell>
        <mxCell id="p1m8qH2R9MSw8GRkQH0f-4" value="se N1 &amp;gt;= N2 &amp;amp;&amp;amp; N1 &amp;gt;= N3" style="rhombus;whiteSpace=wrap;html=1;" vertex="1" parent="1">
          <mxGeometry x="30" y="250" width="346" height="80" as="geometry" />
        </mxCell>
        <mxCell id="p1m8qH2R9MSw8GRkQH0f-15" style="edgeStyle=orthogonalEdgeStyle;rounded=0;orthogonalLoop=1;jettySize=auto;html=1;entryX=1;entryY=0.5;entryDx=0;entryDy=0;" edge="1" parent="1" source="p1m8qH2R9MSw8GRkQH0f-5" target="p1m8qH2R9MSw8GRkQH0f-10">
          <mxGeometry relative="1" as="geometry" />
        </mxCell>
        <mxCell id="p1m8qH2R9MSw8GRkQH0f-16" value="Sim" style="edgeLabel;html=1;align=center;verticalAlign=middle;resizable=0;points=[];" vertex="1" connectable="0" parent="p1m8qH2R9MSw8GRkQH0f-15">
          <mxGeometry x="0.1493" y="-1" relative="1" as="geometry">
            <mxPoint as="offset" />
          </mxGeometry>
        </mxCell>
        <mxCell id="p1m8qH2R9MSw8GRkQH0f-17" style="edgeStyle=orthogonalEdgeStyle;rounded=0;orthogonalLoop=1;jettySize=auto;html=1;entryX=0;entryY=0.5;entryDx=0;entryDy=0;" edge="1" parent="1" source="p1m8qH2R9MSw8GRkQH0f-5" target="p1m8qH2R9MSw8GRkQH0f-8">
          <mxGeometry relative="1" as="geometry">
            <Array as="points">
              <mxPoint x="750" y="430" />
              <mxPoint x="650" y="430" />
              <mxPoint x="650" y="520" />
            </Array>
          </mxGeometry>
        </mxCell>
        <mxCell id="p1m8qH2R9MSw8GRkQH0f-18" value="Nao" style="edgeLabel;html=1;align=center;verticalAlign=middle;resizable=0;points=[];" vertex="1" connectable="0" parent="p1m8qH2R9MSw8GRkQH0f-17">
          <mxGeometry x="0.6295" y="-4" relative="1" as="geometry">
            <mxPoint as="offset" />
          </mxGeometry>
        </mxCell>
        <mxCell id="p1m8qH2R9MSw8GRkQH0f-5" value="se N2 &amp;gt;= N1 &amp;amp;&amp;amp; N2 &amp;gt;= N3" style="rhombus;whiteSpace=wrap;html=1;" vertex="1" parent="1">
          <mxGeometry x="440" y="290" width="316" height="80" as="geometry" />
        </mxCell>
        <mxCell id="p1m8qH2R9MSw8GRkQH0f-22" style="edgeStyle=orthogonalEdgeStyle;rounded=0;orthogonalLoop=1;jettySize=auto;html=1;entryX=1;entryY=0.5;entryDx=0;entryDy=0;" edge="1" parent="1" source="p1m8qH2R9MSw8GRkQH0f-8" target="p1m8qH2R9MSw8GRkQH0f-20">
          <mxGeometry relative="1" as="geometry" />
        </mxCell>
        <mxCell id="p1m8qH2R9MSw8GRkQH0f-8" value="Maior = N3" style="rounded=0;whiteSpace=wrap;html=1;" vertex="1" parent="1">
          <mxGeometry x="680" y="490" width="120" height="60" as="geometry" />
        </mxCell>
        <mxCell id="p1m8qH2R9MSw8GRkQH0f-21" style="edgeStyle=orthogonalEdgeStyle;rounded=0;orthogonalLoop=1;jettySize=auto;html=1;entryX=0;entryY=0.5;entryDx=0;entryDy=0;" edge="1" parent="1" source="p1m8qH2R9MSw8GRkQH0f-9" target="p1m8qH2R9MSw8GRkQH0f-20">
          <mxGeometry relative="1" as="geometry" />
        </mxCell>
        <mxCell id="p1m8qH2R9MSw8GRkQH0f-9" value="Maior = N1" style="rounded=0;whiteSpace=wrap;html=1;" vertex="1" parent="1">
          <mxGeometry x="143" y="470" width="120" height="60" as="geometry" />
        </mxCell>
        <mxCell id="p1m8qH2R9MSw8GRkQH0f-23" style="edgeStyle=orthogonalEdgeStyle;rounded=0;orthogonalLoop=1;jettySize=auto;html=1;entryX=0.5;entryY=0;entryDx=0;entryDy=0;" edge="1" parent="1" source="p1m8qH2R9MSw8GRkQH0f-10" target="p1m8qH2R9MSw8GRkQH0f-20">
          <mxGeometry relative="1" as="geometry" />
        </mxCell>
        <mxCell id="p1m8qH2R9MSw8GRkQH0f-10" value="Maior = N2" style="rounded=0;whiteSpace=wrap;html=1;" vertex="1" parent="1">
          <mxGeometry x="414" y="410" width="120" height="60" as="geometry" />
        </mxCell>
        <mxCell id="p1m8qH2R9MSw8GRkQH0f-24" value="" style="edgeStyle=orthogonalEdgeStyle;rounded=0;orthogonalLoop=1;jettySize=auto;html=1;" edge="1" parent="1" source="p1m8qH2R9MSw8GRkQH0f-20" target="p1m8qH2R9MSw8GRkQH0f-2">
          <mxGeometry relative="1" as="geometry" />
        </mxCell>
        <mxCell id="p1m8qH2R9MSw8GRkQH0f-20" value="" style="ellipse;whiteSpace=wrap;html=1;aspect=fixed;" vertex="1" parent="1">
          <mxGeometry x="400" y="575" width="10" height="10" as="geometry" />
        </mxCell>
      </root>
    </mxGraphModel>
  </diagram>
</mxfile>
